name Run_50002_GRF.mot
datacolumns 19
datarows 15
range 0.846 0.86
endheader
time	     ground_force_vx	     ground_force_vy	     ground_force_vz	     ground_force_px	     ground_force_py	     ground_force_pz	   l_ground_force_vx	   l_ground_force_vy	   l_ground_force_vz	   l_ground_force_px	   l_ground_force_py	   l_ground_force_pz	     ground_torque_x	     ground_torque_y	     ground_torque_z	   l_ground_torque_x	   l_ground_torque_y	   l_ground_torque_z	
0.846	          0.00000000	          0.00000000	          0.00000000	          0.00000000	          0.00000000	          0.00000000	        -10.06144200	         25.28569200	          0.37928000	          1.11906600	          0.00000000	         -0.35186600	          0.00000000	          0.00000000	          0.00000000	          0.00000000	         -2.36253900	          0.00000000	
0.847	          0.00000000	          0.00000000	          0.00000000	          0.00000000	          0.00000000	          0.00000000	        -11.61260100	         29.17481600	          0.48995400	          1.12120400	          0.00000000	         -0.35595900	          0.00000000	          0.00000000	          0.00000000	          0.00000000	         -2.65216200	          0.00000000	
0.848	          0.00000000	          0.00000000	          0.00000000	          0.00000000	          0.00000000	          0.00000000	        -13.35122900	         33.68251000	          0.63069600	          1.12322900	          0.00000000	         -0.35934400	          0.00000000	          0.00000000	          0.00000000	          0.00000000	         -2.94779000	          0.00000000	
0.849	          0.00000000	          0.00000000	          0.00000000	          0.00000000	          0.00000000	          0.00000000	        -15.28892900	         38.88492600	          0.80592600	          1.12506700	          0.00000000	         -0.36211800	          0.00000000	          0.00000000	          0.00000000	          0.00000000	         -3.24887700	          0.00000000	
0.85	          0.00000000	          0.00000000	          0.00000000	          0.00000000	          0.00000000	          0.00000000	        -17.43622400	         44.86370500	          1.02032500	          1.12668700	          0.00000000	         -0.36437000	          0.00000000	          0.00000000	          0.00000000	          0.00000000	         -3.55483000	          0.00000000	
0.851	          0.00000000	          0.00000000	          0.00000000	          0.00000000	          0.00000000	          0.00000000	        -19.80219100	         51.70561600	          1.27881600	          1.12808500	          0.00000000	         -0.36617800	          0.00000000	          0.00000000	          0.00000000	          0.00000000	         -3.86501400	          0.00000000	
0.852	          0.00000000	          0.00000000	          0.00000000	          0.00000000	          0.00000000	          0.00000000	        -22.39406200	         59.50210200	          1.58652100	          1.12927700	          0.00000000	         -0.36760900	          0.00000000	          0.00000000	          0.00000000	          0.00000000	         -4.17875000	          0.00000000	
0.853	          0.00000000	          0.00000000	          0.00000000	          0.00000000	          0.00000000	          0.00000000	        -25.21680500	         68.34855700	          1.94871600	          1.13028500	          0.00000000	         -0.36871900	          0.00000000	          0.00000000	          0.00000000	          0.00000000	         -4.49531900	          0.00000000	
0.854	          0.00000000	          0.00000000	          0.00000000	          0.00000000	          0.00000000	          0.00000000	        -28.27270500	         78.34346800	          2.37076400	          1.13114000	          0.00000000	         -0.36955600	          0.00000000	          0.00000000	          0.00000000	          0.00000000	         -4.81396300	          0.00000000	
0.855	          0.00000000	          0.00000000	          0.00000000	          0.00000000	          0.00000000	          0.00000000	        -31.56093200	         89.58728800	          2.85804700	          1.13186800	          0.00000000	         -0.37015900	          0.00000000	          0.00000000	          0.00000000	          0.00000000	         -5.13388700	          0.00000000	
0.856	          0.00000000	          0.00000000	          0.00000000	          0.00000000	          0.00000000	          0.00000000	        -35.07716400	        102.18111400	          3.41586700	          1.13249500	          0.00000000	         -0.37056100	          0.00000000	          0.00000000	          0.00000000	          0.00000000	         -5.45425900	          0.00000000	
0.857	          0.00000000	          0.00000000	          0.00000000	          0.00000000	          0.00000000	          0.00000000	        -38.81324000	        116.22508200	          4.04934900	          1.13304400	          0.00000000	         -0.37078800	          0.00000000	          0.00000000	          0.00000000	          0.00000000	         -5.77422000	          0.00000000	
0.858	          0.00000000	          0.00000000	          0.00000000	          0.00000000	          0.00000000	          0.00000000	        -42.75688900	        131.81657400	          4.76331200	          1.13353100	          0.00000000	         -0.37086200	          0.00000000	          0.00000000	          0.00000000	          0.00000000	         -6.09288000	          0.00000000	
0.859	          0.00000000	          0.00000000	          0.00000000	          0.00000000	          0.00000000	          0.00000000	        -46.89157900	        149.04814100	          5.56213700	          1.13396900	          0.00000000	         -0.37080300	          0.00000000	          0.00000000	          0.00000000	          0.00000000	         -6.40932500	          0.00000000	
0.86	          0.00000000	          0.00000000	          0.00000000	          0.00000000	          0.00000000	          0.00000000	        -51.19645300	        168.00523400	          6.44961300	          1.13436700	          0.00000000	         -0.37062500	          0.00000000	          0.00000000	          0.00000000	          0.00000000	         -6.72261900	          0.00000000	
